<svg width="115" height="89" viewBox="0 0 115 89" fill="none" xmlns="http://www.w3.org/2000/svg">
<path d="M77.7279 36.4501C77.4166 34.9497 76.8479 33.5154 76.0473 32.2112C74.5023 29.7287 72.2424 27.778 69.5681 26.6183C73.2879 24.3781 75.6507 20.6622 75.6507 15.2335C75.6507 5.56391 68.3594 1.74802e-05 59.1528 1.74802e-05H40.2654C39.7065 -0.00158919 39.1528 0.107576 38.6359 0.321276C38.119 0.534976 37.6491 0.849017 37.2529 1.24545C36.8568 1.64188 36.5422 2.11294 36.3272 2.63168C36.1123 3.15042 36.0011 3.70667 36 4.26865V50.4629C36.0011 51.0249 36.1123 51.5811 36.3272 52.0998C36.5422 52.6186 36.8568 53.0896 37.2529 53.4861C37.6491 53.8825 38.119 54.1965 38.6359 54.4102C39.1528 54.6239 39.7065 54.7331 40.2654 54.7315C44.752 54.7315 49.248 54.7405 53.7212 54.9164C57.9858 55.0842 63.0095 55.195 66.9574 53.2143C69.6096 52.4353 72.0286 51.0079 73.9984 49.0597C76.1179 46.8602 77.4753 44.0319 77.8689 40.9949C78.0825 39.4831 78.0348 37.9455 77.7279 36.4501V36.4501ZM77.5902 40.9594C77.2468 43.9566 75.9511 46.7625 73.8955 48.9603C71.9833 50.9108 69.6237 52.3589 67.0243 53.1772C67.3924 52.9906 67.7506 52.7848 68.0973 52.5605C69.8413 51.4072 71.2816 49.8463 72.2951 48.0114C73.3085 46.1765 73.8651 44.122 73.917 42.0238C73.9309 41.2853 73.8855 40.5468 73.7813 39.8157C72.4502 30.3811 59.3056 29.7791 59.1792 29.773L59.3193 30.5062C59.7898 32.9674 60.2602 35.4287 60.7306 37.8899C60.8023 38.2655 60.7533 38.3131 60.3717 38.2463C59.8139 38.1482 59.2569 38.0455 58.6983 37.9539C58.6302 37.9472 58.5648 37.9234 58.5082 37.8847C58.4516 37.846 58.4055 37.7936 58.3743 37.7323C57.2979 35.7965 56.2185 33.8621 55.1361 31.9293C54.407 30.6259 53.6742 29.3249 52.9487 28.0191C52.9099 27.9397 52.8517 27.8714 52.7796 27.8206C52.7076 27.7698 52.6238 27.7382 52.5363 27.7287C51.1125 27.4871 49.6907 27.2338 48.2689 26.98C47.4525 26.8592 46.6939 26.4857 46.0985 25.9112C45.9272 25.7452 45.7935 25.5441 45.7064 25.3215C45.6226 25.1278 45.6042 24.9118 45.654 24.7066C45.7037 24.5015 45.8189 24.3183 45.9818 24.185C46.3606 23.8656 46.8209 23.6595 47.3105 23.5904C47.837 23.4999 48.3754 23.5042 48.9004 23.603C50.3226 23.8543 51.7457 24.1016 53.1663 24.361C53.2436 24.3786 53.3242 24.3759 53.4002 24.3531C53.4763 24.3304 53.5452 24.2883 53.6005 24.2311C55.0251 22.9941 56.4571 21.7664 57.8858 20.5339C59.1769 19.4206 60.4669 18.3055 61.7558 17.1886C61.8551 17.1027 61.9641 17.0257 62.056 16.9341C62.0984 16.8896 62.152 16.8576 62.211 16.8412C62.27 16.8249 62.3324 16.8249 62.3914 16.8412C62.9808 16.9495 63.5714 17.0497 64.1608 17.1556C64.4443 17.2066 64.4848 17.3031 64.3325 17.5597C63.1983 19.4662 62.0623 21.3721 60.9246 23.2776L60.2004 24.4926C60.2042 24.4933 60.208 24.4942 60.2117 24.4954C61.7105 24.8909 63.2093 25.2742 64.7121 25.6579C65.3728 25.8265 66.0326 26 66.6868 26.1915C67.4565 26.4163 68.2131 26.6697 68.9552 26.9674H68.9581C71.7226 28.0225 74.0805 29.9368 75.6888 32.4319C77.2972 34.9615 77.9699 37.9791 77.5894 40.957L77.5902 40.9594Z" fill="white"/>
<path d="M36.1563 79.5008C36.1563 74.2569 40.6251 70 46.1337 70C51.6774 70 56.1106 74.2569 56.1106 79.5008C56.1106 84.7447 51.6774 89 46.1337 89C40.6251 89 36.1563 84.7451 36.1563 79.5008ZM36.6755 79.5008C36.6755 84.4981 40.9207 88.5051 46.1333 88.5051C51.3813 88.5051 55.5906 84.4981 55.5906 79.5008C55.5906 74.5036 51.3825 70.4925 46.1333 70.4925C40.9207 70.4925 36.6755 74.5023 36.6755 79.5008V79.5008ZM13.9449 79.5008C13.9449 74.2569 18.4136 70 23.9222 70C29.4614 70 33.8991 74.2569 33.8991 79.5008C33.8991 84.7447 29.4614 89 23.9222 89C18.414 89 13.9461 84.7451 13.9461 79.5008H13.9449ZM14.464 79.5008C14.464 84.4981 18.7092 88.5051 23.9218 88.5051C29.1702 88.5051 33.3792 84.4981 33.3792 79.5008C33.3792 74.5036 29.1702 70.4925 23.9218 70.4925C18.7096 70.4925 14.4644 74.5023 14.4644 79.5008H14.464ZM69.9287 88.753L60.6955 79.0063H59.5945V88.753H59.0839V70.2495H59.5945V78.5138H60.7319L69.6697 70.2495H70.4217L61.2151 78.7609L70.6819 88.7546L69.9287 88.753ZM0 88.753V70.2495H6.25612C9.01002 70.2495 11.2444 72.3769 11.2444 74.9968C11.2259 75.966 10.9154 76.9067 10.3541 77.6945C9.79288 78.4823 9.0072 79.0801 8.10103 79.4089C9.1455 79.6465 10.0817 80.2272 10.762 81.0594C11.4422 81.8916 11.8279 82.928 11.8581 84.0052C11.8581 86.5968 9.62376 88.7546 6.86945 88.7546L0 88.753ZM0.519537 88.258H6.86945C9.33259 88.258 11.3386 86.3481 11.3386 84.0036C11.3386 81.659 9.33259 79.7487 6.86945 79.7487H0.519948L0.519537 88.258ZM0.519537 79.2538H6.25612C6.82766 79.2704 7.39686 79.1734 7.93105 78.9682C8.46524 78.763 8.95392 78.4537 9.36906 78.058C9.78419 77.6623 10.1176 77.188 10.3502 76.6623C10.5828 76.1367 10.71 75.57 10.7244 74.9948C10.7244 72.6519 8.71355 70.7399 6.25572 70.7399H0.519948L0.519537 79.2538ZM110.202 88.7509L105.402 81.5897H103.682V88.7509H99.4043V70.229H107.672C108.426 70.2064 109.178 70.3366 109.881 70.6119C110.585 70.8872 111.227 71.302 111.768 71.8316C112.309 72.3613 112.739 72.9949 113.032 73.695C113.325 74.3951 113.476 75.1474 113.474 75.9071C113.489 77.0915 113.111 78.247 112.401 79.1917C111.69 80.1363 110.688 80.8163 109.552 81.1247L115 88.7509H110.202ZM103.682 78.2266H107.02C108.383 78.2266 109.39 77.3315 109.39 76.0343C109.39 74.7683 108.383 73.8416 107.02 73.8416H103.682V78.2266ZM84.9232 88.7509L83.7173 85.2626H76.4584L75.2566 88.7509H70.6892L77.6859 70.229H82.4866L89.4906 88.7505L84.9232 88.7509ZM77.5909 81.8634H82.5857L80.0883 74.5175L77.5909 81.8634ZM91.1598 88.7497V70.229H95.4376V88.7497H91.1598Z" fill="white"/>
</svg>
