<svg width="1024" height="1024" viewBox="0 0 1024 1024" fill="none" xmlns="http://www.w3.org/2000/svg">
<rect width="1024" height="1024" rx="177" fill="white"/>
<path d="M1024 0H0V1024H1024V0Z" fill="url(#paint0_linear)"/>
<path d="M717.341 598.901C714.302 584.335 708.75 570.409 700.934 557.746C685.856 533.648 663.795 514.708 637.684 503.445C673.996 481.694 697.063 445.614 697.063 392.908C697.063 299.025 625.877 245 536.006 245H351.624C340.605 244.982 330.031 249.338 322.225 257.109C314.42 264.881 310.022 275.433 310 286.444V734.951C310.022 745.962 314.42 756.513 322.225 764.285C330.031 772.057 340.605 776.413 351.624 776.394C395.422 776.394 439.314 776.478 482.982 778.189C524.606 779.818 573.657 780.892 612.203 761.662C638.099 754.092 661.715 740.228 680.939 721.308C701.631 699.951 714.881 672.496 718.723 643.018C720.806 628.342 720.338 613.417 717.341 598.901ZM715.996 642.67C712.653 671.768 700.01 699.015 679.945 720.364C661.28 739.299 638.245 753.359 612.865 761.305C616.459 759.494 619.955 757.495 623.339 755.317C640.368 744.113 654.429 728.957 664.323 711.142C674.216 693.327 679.648 673.384 680.153 653.016C680.288 645.846 679.844 638.677 678.826 631.579C665.833 539.974 537.51 534.132 536.276 534.073L537.643 541.213C542.236 565.109 546.828 589.005 551.419 612.901C552.118 616.545 551.64 617.011 547.916 616.359C542.47 615.406 537.044 614.409 531.58 613.518C530.913 613.455 530.273 613.224 529.719 612.848C529.164 612.472 528.714 611.963 528.408 611.367C517.899 592.57 507.361 573.789 496.796 555.023C489.682 542.371 482.525 529.74 475.453 517.062C475.073 516.29 474.503 515.626 473.797 515.132C473.091 514.639 472.271 514.332 471.414 514.241C457.514 511.897 443.632 509.435 429.753 506.974C421.783 505.8 414.377 502.174 408.565 496.6C406.893 494.987 405.588 493.034 404.738 490.872C403.921 488.992 403.741 486.896 404.227 484.904C404.713 482.913 405.837 481.134 407.428 479.84C411.125 476.739 415.62 474.738 420.4 474.067C425.544 473.188 430.802 473.23 435.931 474.191C449.813 476.634 463.708 479.03 477.577 481.554C478.333 481.725 479.12 481.698 479.862 481.477C480.605 481.257 481.278 480.849 481.817 480.294C495.724 468.284 509.705 456.364 523.649 444.4C536.255 433.585 548.847 422.759 561.428 411.921C562.397 411.089 563.462 410.35 564.357 409.438C564.77 409.007 565.293 408.696 565.868 408.537C566.444 408.379 567.052 408.379 567.628 408.538C573.381 409.59 579.146 410.562 584.902 411.592C587.663 412.086 588.07 413.026 586.576 415.516C575.495 434.025 564.406 452.53 553.308 471.031L546.238 482.827C546.275 482.834 546.311 482.843 546.347 482.854C560.971 486.694 575.627 490.416 590.282 494.141C596.731 495.78 603.173 497.463 609.56 499.322C617.055 501.495 624.47 503.978 631.704 506.856H631.729C658.722 517.104 681.74 535.689 697.436 559.909C713.138 584.473 719.705 613.769 715.99 642.679L715.996 642.67Z" fill="white"/>
<defs>
<linearGradient id="paint0_linear" x1="1024" y1="0" x2="0" y2="1024" gradientUnits="userSpaceOnUse">
<stop stop-color="#F2404D"/>
<stop offset="1" stop-color="#DE253A"/>
</linearGradient>
</defs>
</svg>
